<svg width="24" height="24" viewBox="0 0 24 24" fill="none" xmlns="http://www.w3.org/2000/svg">
<path d="M19.7 3H4.3C3.582 3 3 3.582 3 4.3V19.7C3 20.418 3.582 21 4.3 21H19.7C20.418 21 21 20.418 21 19.7V4.3C21 3.582 20.418 3 19.7 3ZM8.339 18.338H5.667V9.748H8.339V18.338ZM7.004 8.574C6.147 8.574 5.455 7.88 5.455 7.026C5.455 6.171 6.146 5.478 7.004 5.478C7.858 5.478 8.551 6.172 8.551 7.026C8.551 7.881 7.858 8.574 7.004 8.574ZM18.339 18.338H15.67V14.161C15.67 13.165 15.653 11.883 14.283 11.883C12.894 11.883 12.682 12.969 12.682 14.089V18.338H10.015V9.748H12.574V10.922H12.611C12.967 10.247 13.838 9.535 15.137 9.535C17.84 9.535 18.34 11.314 18.34 13.627L18.339 18.338Z" fill="black"/>
</svg>
