<svg width="81" height="15" viewBox="0 0 81 15" fill="none" xmlns="http://www.w3.org/2000/svg">
<path fill-rule="evenodd" clip-rule="evenodd" d="M8.05289 11.25L3.31952 13.5676L4.22351 8.65881L0.394137 5.18237L5.68621 4.46619L8.05289 0L10.4196 4.46619L15.7116 5.18237L11.8823 8.65881L12.7863 13.5676L8.05289 11.25Z" fill="#F5A623"/>
<path fill-rule="evenodd" clip-rule="evenodd" d="M24.1586 11.25L19.4252 13.5676L20.3292 8.65881L16.4998 5.18237L21.7919 4.46619L24.1586 0L26.5253 4.46619L31.8174 5.18237L27.988 8.65881L28.892 13.5676L24.1586 11.25Z" fill="#F5A623"/>
<path fill-rule="evenodd" clip-rule="evenodd" d="M40.2646 11.25L35.5312 13.5676L36.4352 8.65881L32.6058 5.18237L37.8979 4.46619L40.2646 0L42.6312 4.46619L47.9233 5.18237L44.0939 8.65881L44.9979 13.5676L40.2646 11.25Z" fill="#F5A623"/>
<path fill-rule="evenodd" clip-rule="evenodd" d="M56.3703 11.25L51.6369 13.5676L52.5409 8.65881L48.7115 5.18237L54.0036 4.46619L56.3703 0L58.737 4.46619L64.029 5.18237L60.1997 8.65881L61.1036 13.5676L56.3703 11.25Z" fill="#F5A623"/>
<path opacity="0.351053" fill-rule="evenodd" clip-rule="evenodd" d="M72.476 11.25L67.7426 13.5676L68.6466 8.65881L64.8172 5.18237L70.1093 4.46619L72.476 0L74.8427 4.46619L80.1347 5.18237L76.3054 8.65881L77.2094 13.5676L72.476 11.25Z" fill="#F5A623"/>
</svg>
